<svg width="21" height="22" viewBox="0 0 21 22" fill="none" xmlns="http://www.w3.org/2000/svg">
<path d="M18.8958 1H1.10417C0.494167 1 0 1.49417 0 2.10417V19.8967C0 20.5058 0.494167 21 1.10417 21H10.6833V13.255H8.07667V10.2367H10.6833V8.01083C10.6833 5.4275 12.2608 4.02083 14.5658 4.02083C15.67 4.02083 16.6183 4.10333 16.895 4.14V6.84L15.2967 6.84083C14.0433 6.84083 13.8008 7.43667 13.8008 8.31V10.2375H16.79L16.4008 13.2558H13.8008V21H18.8975C19.5058 21 20 20.5058 20 19.8958V2.10417C20 1.49417 19.5058 1 18.8958 1Z" fill="white" stroke="black"/>
</svg>
